# xmcd
#
# Track frame offsets:
# 150
# 17701
# 40620
# 51018
# 72029
# 86588
# 98285
# 117055
# 139036
# 155527
# 177721
# 196553
# 209596
# 219490
# 236949
# 249673
#
# Disc length: 3584 seconds
#
#
# Revision: 0
# Processed by: cddbd v1.5.1PL0 Copyright (c) Steve Scherf et al.
# Submitted via: FreeRIP 2.80 
#
DISCID=d60dfe10
DTITLE=Tankcsapda - Tankologia
DYEAR=1900
DGENRE=
TTITLE0=Mennyorszag tourist
TTITLE1=Akapulko
TTITLE2=Run Like The 'Head
TTITLE3=Mikor a srac...
TTITLE4=Legyen koztunk hid
TTITLE5=Kicsiket
TTITLE6=Barany
TTITLE7=Nem lesz jobb
TTITLE8=Babyface
TTITLE9=Bon
TTITLE10=A legjobb mereg
TTITLE11=Purple Haze
TTITLE12=Magzat a mehben
TTITLE13=Szivd
TTITLE14=Johnny a mocsokban
TTITLE15=For Beth
EXTD=
EXTT0=
EXTT1=
EXTT2=
EXTT3=
EXTT4=
EXTT5=
EXTT6=
EXTT7=
EXTT8=
EXTT9=
EXTT10=
EXTT11=
EXTT12=
EXTT13=
EXTT14=
EXTT15=
PLAYORDER=
